{"title":"George Romero's Bruiser [DVDRIP] 2000","uid":5590017,"size":733882368,"categoryP":"video","categoryS":"movies","magnet":"?xt=urn:btih:f248fbe6a8ea85e57d609bd9f5147f798c48a5f2&amp;dn=George+Romero%5C%27s+Bruiser+%5BDVDRIP%5D+2000&amp;tr=udp%3A%2F%2Ftracker.openbittorrent.com%3A80&amp;tr=udp%3A%2F%2Fopen.demonii.com%3A1337&amp;tr=udp%3A%2F%2Ftracker.coppersurfer.tk%3A6969&amp;tr=udp%3A%2F%2Fexodus.desync.com%3A6969","seeders":2,"leechers":0,"uploader":"neon","files":-1,"time":1274831967,"description":"George Romero's Bruiser 2000 \n-----------------------------\n &lt;a href=&quot;\nhttp://www.imdb.com/title/tt0212830/&quot; rel=&quot;nofollow&quot; target=&quot;_NEW&quot;&gt;\nhttp://www.imdb.com/title/tt0212830/&lt;/a&gt;\n\nGeneral\nComplete name : Bruiser 2000 DVD.avi\nFormat : AVI\nFormat/Info : Audio Video Interleave\nFile size : 700 MiB\nDuration : 1h 35mn\nOverall bit rate : 1 028 Kbps\nWriting application : Nandub v1.0rc2\nWriting library : Nandub build 1852/release\nVideo #0\nID : 0\nFormat : MPEG-4 Visual\nFormat settings, BVOP : Yes\nFormat settings, QPel : No\nFormat settings, GMC : No warppoints\nFormat settings, Matrix : Default (H.263)\nCodec ID : DX50\nCodec ID/Hint : DivX 5\nDuration : 1h 35mn\nBit rate : 850 Kbps\nWidth : 544 pixels\nHeight : 304 pixels\nDisplay aspect ratio : 16:9\nFrame rate : 25.000 fps\nResolution : 24 bits\nScan type : Progressive\nBits/(Pixel*Frame) : 0.206\nStream size : 579 MiB (83%)\nWriting library : DivX 5.0.2 (UTC 2002-05-16)\nAudio #1\nID : 1\nFormat : MPEG Audio\nFormat version : Version 1\nFormat profile : Layer 3\nCodec ID : 55\nCodec ID/Hint : MP3\nDuration : 1h 35mn\nBit rate mode : Variable\nBit rate : 165 Kbps\nChannel(s) : 2 channels\nSampling rate : 48.0 KHz\nResolution : 16 bits\nStream size : 112 MiB (16%)\nAlignment : Aligned on interleaves\nInterleave, duration : 24 ms (0.60 video frame)\nInterleave, preload duration : 465 ms\n\n\nMaster of Horror George Romero's film is about a man who one day wakes to find that his face is now a smooth white, featureless mask. Freed by this newfound anonymity, he then seeks revenge on all who have wronged him. Bruiser is the story of a man who has always tried to fit in. He keeps his mouth shut, follows the rules, and does what he's supposed to do. But one morning, he wakes up to find his face is gone. All the years of acquiescence have cost him the one thing he can't replace: his identity. Now he's a blank, outside as well as in, an anonymous, featureless phantom. Bent on exacting revenge, he explodes. He isn't going to follow the rules anymore. \n","torrent":{"xt":"urn:btih:f248fbe6a8ea85e57d609bd9f5147f798c48a5f2","amp;dn":"George+Romero%5C%27s+Bruiser+%5BDVDRIP%5D+2000","amp;tr":["udp%3A%2F%2Ftracker.openbittorrent.com%3A80","udp%3A%2F%2Fopen.demonii.com%3A1337","udp%3A%2F%2Ftracker.coppersurfer.tk%3A6969","udp%3A%2F%2Fexodus.desync.com%3A6969"],"infoHash":"f248fbe6a8ea85e57d609bd9f5147f798c48a5f2","infoHashBuffer":{"type":"Buffer","data":[242,72,251,230,168,234,133,229,125,96,155,217,245,20,127,121,140,72,165,242]},"announce":[],"urlList":[]}}